<?xml version='1.0' encoding='utf-8'?>
<svg xmlns="http://www.w3.org/2000/svg" version="1.1" id="Layer_1" x="0px" y="0px" viewBox="0 0 1361.458 1730.086" enable-background="new 0 0 1361.458 1730.086"> <g> <path d="M1218.031,380.61c-15.751,3.152-26.786,11.066-47.908,3.33c-32.162-11.78,1.016-20.022,23.913-36.841 c80.089-58.828,105.097-105.845,81.874-95.652c-100.01,43.897-69.892,17.918-62.224-16.933 c3.181-14.459,23.036-112.846,14.704-127.984c-25.162,13.211-30.225,97.668-50.021,101.135 c-5.789,1.014-10.771-55.05-12.683-65.021c-4.68-24.403-16.062-68.978-19.633-73.613c-21.909-28.439,2.12,101.303-22.714,194.572 C1071.053,459.971,899.54,487.566,881.741,506.75c-23.678,25.521,0.111-91.053,26.392-150.636 c37.067-84.034,69.93-93.33,78.822-122.257c20.193-65.69-122.656,82.967-129.133,115.262c-1.839,9.171-17.232-4.907-23.679-56.715 c-3.693-29.683,0.14-49.046-8.265-42.169c-24.438,19.991-28.302,115.609-27.685,112.446c-0.557,2.857,0.755,3.792-2.198,4.607 c-1.713,0.473-3.833,0.042-4.547-1.743c-48.63-121.555-36.13-155.638-52.064-156.765c-15.599-1.103-11.883,68.716-11.9,91.342 c-0.049,60.726,18.62,98.167-45.44,13.445c-12.861-17.01-18.859-31.047-21.596-52.137c-1.281-9.868-12.7-8.017-13.496,0.536 c-1.952,20.98,4.122,65.886,27.777,116.431c28.133,60.116,95.446,99.654,108.786,141.902c7.656,24.245,15.9,21.371-14.143,40.92 c-39.804,25.9-42.108,15.872-52.134,10.239c-53.573-30.099-125.528,10.629-133.073,37.332 c-4.662,16.497-46.399-61.522-22.416-227.215c0.753-5.202,0.213-10.389-1.403-15.386c-4.613-14.26-35.944,40.659-36.614,41.465 c-17.809,21.442,6.315-120.177-14.076-92.717c-7.403,9.969-8.666,29.169-11.332,40.339c-0.193,0.809-9.683,40.11-10.735,41.031 c-15.263,13.362-21.234-153.42-45.034-124.504c-9.767,11.866-2.183,152.244,33.398,204.119c2.504,3.65-0.26,9.877-6.668,3.456 c-44.868-44.95-40.38-51.036-68.331-93.42c-8.234-12.486-17.013,2.726,9.002,56.449c34.479,71.202-66.705-74.239-66.525-36.207 c0.105,21.985,41.879,91.285,41.392,90.432c20.663,36.2,79.32,94.569,80.06,95.376c2.354,2.564,5.341,10.659-0.992,6.392 c-76.248-51.368-214.003-118.557-292.378-386.061c-1.042-3.558-7.815-15.232-10.203,18.274 c-7.086,99.432,20.043,154.392-90.679,51.922c-19.574-18.115-23.366-10.54-15.85,10.048c14.324,39.238,18.897,53.678,67.086,88.856 c5.705,4.165,24.864,15.42,31.793,16.845c14.166,2.915,1.985,29.758-36.987,11.861c-35.723-16.406-33.876-17.888-35.512-16.343 c-7.96,7.518,34.069,39.485,43.499,45.398c42.522,26.66,87.229,32.13,64.646,40.25c-3.691,1.327-73.769-6.889-113.795-29.226 c-20.119-11.228-14.512,41.835,111.729,78.521c34.443,10.009,98.389-1.566,74.044,36.365 c-18.742,29.201-61.419,18.797-84.073,0.546c-1.141-0.919-11.04-6.755-15.282-0.638c-12.03,17.35,76.678,78.379,148.294,66.56 c39.513-6.521,40.706-21.169,54.937-16.023c44.874,16.224,70.376,30.733,140.695,47.802c47.883,11.623,43.295,6.65,43.295,14.315 c-7.969,18.401-16.403,48.586-11.78,73.967c6.367,34.963,17.709,5.406-14.635,50.167c-53.984,74.71-58.364,102.405-75.276,158.151 c-10.02,33.029-7.456,71.329-14.673,79.522c-14.188,16.103-3.246,34.625,4.404,54.103c5.593,13.633,7.981,28.687,15.726,41.137 c31.473,50.589,81.059,49.663,100.769,27.22c9.596-10.927,2.886-11.424,6.088-16.733c1.524-2.527,5.94-2.619,6.687,0.122 c3.993,14.644,19.245,23.009,32.701,27.28c25.478,8.087,37.978-0.992,34.826,9.09c-1.213,3.88-54.728,105.769-34.064,306.274 c0.919,8.915-11.908,6.622-20.614,6.652c-13.165,0.045-140.534-106.191-163.271,8.286c-6.303,31.735,5.332,40.171-9.092,50.777 c-17.54,12.898-11.153,44.86-21.486,69.773c-1.612,3.887,0.016,5.981,4.166,7.126c20.17,5.567-0.556,2.355,30.754,8.321 c19.114,3.641,62.993,2.035,77.409-9.52c17.97-14.404,12.858-43.481,1.014-45.82c-1.161-0.23-2.901-15.282,1.967-12.91 c14.572,7.099,87.602,26.599,99.449,28.097c4.354,0.551,2.574,12.584,2.545,18.541c-0.064,13.254-6.926,27.61,4.395,29.472 c8.931,1.469,68.345,15.851,90.44-7.188c3.082-3.213,8.945,0.226,7.477,8.648c-1.553,8.905,8.696,7.484,20.21,9.695 c72.394,13.906,74.24-15.583,104.969-0.09c35.495,17.897,110.138-0.113,109.295-25.78c-0.539-16.42-0.742-23.627-8.008-29.902 c-5.224-4.511,0.985-10.879,6.258-7.549c6.902,4.359,148.866,41.632,157.916,45.494c3.469,1.48,23.557-0.283,26.535-0.742 c15.972-2.461,26.223-9.236,22.198-29.754c-2.533-12.909-17.18-25.814-4.3-60.038c2.644-7.027,80.884-144.808,67.288-283.657 c-7.157-73.088-102.08-143.433-141.678-81.542c-2.35,3.673-5.908,3.274-7.705-0.715c0,0-30.254-63.465-30.254-63.466 c-73.26-153.245-62.179-233.971-121.725-235.904c-27.988-0.909-17.858,6.436-54.096-1.77c-5.468-1.238-10.378,0.583-12.241-8.277 c-2.907-13.829-25.883-116.921-30.14-127.194c-6.835-16.579,78.431,13.505,76.414-30.99c-1.151-25.397-19.288-47.309-42.227-56.689 c-18.973-7.759-37.278-5.807-57.166-4.217c-11.626,0.929-18.27,5.555-21.294-1.516c-8.38-19.59-24.24-13.5,25.932-28.358 c25.008-7.406,108.581-69.335,211.103-55.378c36.886,5.021,118.226,42.164,119.033,42.482 c31.214,12.289,66.234,38.421,80.233,31.267c5.04-2.576,7.376-9.419,2.917-12.934c-5.969-4.706-9.537-11.327-15.22-16.383 c-81.103-72.163-89.23-74.808-103.978-112.359c-6.209-15.82,36.33,1.023,45.749,5.518c83.318,39.7,78.639,71.781,101.666,57.273 c19.166-12.075,15.243-16.994,15.686-28.313c0.665-16.99-11.133-18.089-84.942-87.321c-4.973-4.665-9.301-9.983-14.607-14.331 c-18.53-15.182,55.109-3.303,84.085-7.631c4.919-0.735,52.784-0.956,62.381-7.554c4.478-3.079,6.174-9.8,10.115-13.779 C1330.59,380.467,1250.46,374.121,1218.031,380.61z M445.296,1572.937c-7.24-1.052-12.923-8.664-17.404-10.667 c-6.083-2.718-2.476-12.752,1.532-7.08c8.421,11.913,14.116,10.15,18.103,14.058 C449.112,1570.803,449.359,1573.528,445.296,1572.937z M1047.54,1218.599c1.29,1.692-7.059,24.031-10.901,42.515 c-6.098,29.339-2.105,66.128,4.612,95.699c0.931,4.097-2.496,4.517-3.588,0.602 C1018.912,1290.135,1042.872,1212.478,1047.54,1218.599z M663.448,607.05c10.56,18.79-21.715,27.78-21.845,9.34 C641.454,595.499,655.494,592.898,663.448,607.05z M635.096,717.727c6.512,6.912,0.831,19.648-5.614,21.448 c-8.679,2.425-11.013-11.846-7.802-14.542c6.581-5.525,9.473,6.197,11.714,3.454c4.447-5.443-6.654-12.511-12.235-5.53 c-1.414,1.768-2.937,1.842-3.959,0.892C614.708,721.129,627.937,710.127,635.096,717.727z M580.534,708.313 c11.91,0.333,12.763,12.357,7.995,7.747c-2.552-2.466-5.341-4.595-9.31-3.903c-1.125,0.196-2.932,1.458-3.236-0.741 C575.652,709.026,578.162,708.499,580.534,708.313z M580.364,720.764c7.074,0.119,6.02,12.385-1.291,12.223 C572.777,733.721,573.231,720.643,580.364,720.764z M609.301,795.59c31.456-0.303,24.279,1.207,35.872,5.365 c7.13,2.557,28.039,14.376,33.656,24.983c-11.079-4.624-28.423-23.268-48.247-26.524c-34.631-5.688-77.061,8.211-77.061,8.211 c-1.218-0.233-2.369-1.325-2.199-2.553C551.902,800.886,607.472,795.608,609.301,795.59z M516.91,1123.39 c-6.137,3.164-21.545,4.599-13.719-18.869c1.151-3.45,19.167-12.357,19.156,5.938 C522.343,1117.526,521.363,1121.094,516.91,1123.39z M611.524,1106.958c-6.218-2.339-7.953-14.572-1.046-22.913 c2.142-2.587,5.071-0.543,7.199-1.228C641.37,1082.767,627.87,1113.106,611.524,1106.958z M493.822,1021.079 c-6.135,1.558-6.934-4.154-0.179-5.203c48.145-7.472,81.738-15.953,140.146-2.355c62.084,14.454,64.554,66.517,40.191,91.973 c1.531-9.506,33.72-51.756-19.642-80.149C627.924,1011.29,571.969,1001.236,493.822,1021.079z M656.353,1633.162 c0.044,0.001,0.088,0.002,0.131,0.002c0.8-18.185-9.599-19.949-29.545-27.635c-1.315-0.507-2.157-3.228,0.816-3.294 c6.946-0.152,23.044,6.552,29.942,13.171C667.389,1624.706,656.353,1655.992,656.353,1633.162z M691.007,1327.835 c-7.503,46.279-21.118,31.209-28.289,57.258c-6.219,22.59,5.057,45.703,9.746,66.908c16.937,76.589-42.738,75.631-55.125,122.984 c-2.99,11.43-14.137-8.195,15.949-36.017c18.299-16.922,34.715-26.218,37.492-58.824c3.562-41.825-30.506-80.754-2.466-112.457 c4.845-5.478,11.128-10.711,13.308-17.748c14.574-47.056,9.811-102.926,9.811-102.926c-0.114-0.843-0.177-1.693-0.204-2.545 c-0.337-0.915-0.866-1.566-0.212-2.447c-0.15-8.977-2.152-18.027-3.491-26.92c-0.486-3.229,2.694-3.438,3.356,0.548 c1.877,11.319,6.794,62.68,4.165,82.824C695.046,1308.388,692.582,1318.119,691.007,1327.835z M678.115,1166.469 c0.783-0.811,102.707-17.616,91.597-158.31c-3.225-40.835-8.325-60.43-11.422-90.796c-10.346-101.454,33.177-106.405-29.819-98.898 c28.766-18.99,64.685,9.954,53.3,21.994c-4.595-31.268-30.325-6.588-19.461,82.353c8.137,66.613,24.02,132.292-7.567,188.846 C725.278,1164.413,667.648,1177.314,678.115,1166.469z M750.684,1615.814c-6.489-10.086,3.379-18.222-12.416-19.324 c-28.603-1.997-25.078-5.111-30.939,15.831c-1.621,5.793-5.328,3.682-5.793,1.104c-0.162-0.895,2.81-20.497,9.921-23.339 c0.517-0.207,15.82,0.541,16.376,0.563c23.261,0.915,24.425-2.259,24.425,11.538 C753.274,1609.442,754.765,1622.157,750.684,1615.814z M775.024,1446.117c4.079,14.149,18.476,48.015-6.252,80.92 c-7.74,10.3-29.191,25.475-30.883,15.604c-2.687-15.68-7.522-12.34-14.17-83.433c-1.771-18.946,16.563-29.947,19.691-39.142 c6.251-18.376-4.464-46.922-8.218-60.453c-4.477-16.139-6.666,4.882,11.429-89.731c0.664-3.474,3.352-2.026,3.158,1.159 c-1.625,26.729-13.816,52.211-12.565,79.173c0.887,19.111,10.392,16.92,11.485,66.651c0.299,13.604-22.903,17.183-21.132,59.937 c0.383,9.246,1.138,20.52,5.144,29.001c6.044,12.794,5.81,35.692,15.382,31.28c13.782-6.352,22.587-18.48,26.929-32.757 c14.772-48.581-32.219-103.747-0.325-132.768c32.434-29.512,16.704-111.382,25.319-94.693c0.755,1.463-0.039,4.695-0.027,6.296 C800.897,1406.709,747.46,1350.488,775.024,1446.117z M837.045,1582.512c-0.762-1.144-2.616-8.436-13.229,1.09 c-10.745,9.645-8.748,44.257-8.618,50.833c0.142,7.208-7.444,0.776-8.024-2.459c-0.03-0.166,0.671-16.428,0.713-16.593 c1.008-3.945,3.192-7.473,4.459-11.328c1.812-5.514-0.018-22.177,10.576-27.94c7.415-4.033,6.638-7.726,5.605-15.632 c-0.661-5.057,3.252-7.14,4.208-5.085c0.375,0.806,0.201,1.168-0.582,13.689c-0.413,6.616,2.975,1.464,6.796,6.977 c5.359,7.732,18.074,7.998,20.469,11.609C863.809,1594.296,839.393,1586.038,837.045,1582.512z M857.741,1274.649 c9.339-36.896,4.967-56.813,4.967-56.813c0.55-1.673,3.084-2.498,3.553,1.241c6.779,54.065-33.548,105.537-11.182,174.296 c3.312,10.181,5.833,31.678-6.423,39.659c-21.362,13.912-19.52,69.461-9.42,88.426c16.48-29.653,47.401-22.07,77.076-11.632 c19.596,6.893,90.579,38.211,90.046,42.152c-2.582,19.088-118.592-82.608-158.717-33.79c-3.339,4.063-5.204,14.913-11.86,13.825 c-3.596-0.588-16.121-73.608,4.222-97.552c4.702-5.534,14.122-9.604,14.159-22.22c0.042-14.266-4.524-17.658-9.135-48.313 C840.441,1333.446,850.363,1303.798,857.741,1274.649z M833.824,1039.711c0.372-1.092,0.834-2.109,1.589-2.914 c-0.218-0.807,2.16-6.658,2.594-7c2.051-7.897,9.667-16.698,2.461-63.711c-5.401-35.236-14.31-47.68-9.712-47.197 c4.119,0.433,24.61,71.474,11.201,111.672c-5.813,17.427-34.789,66.422-35.728,66.725c-0.807,0.26-2.578-0.643-0.898-3.639 C815.101,1076.223,827.362,1058.692,833.824,1039.711z M831.22,696.588c22.813,22.865,3.172,16.409-57.537,1.765 c-1.53-0.369-13.923-1.311-14.068-4.635C759.068,681.145,801.079,666.384,831.22,696.588z M774.122,726.378 c4.367,1.358,13.939,1.341,13.303,4.758c-1.513,8.128-46.033-17.635-47.45-22.313C737.537,700.773,759.412,721.804,774.122,726.378 z"/> </g> </svg>