<?xml version="1.0" encoding="UTF-8" standalone="no"?>
<svg
   xmlns:dc="http://purl.org/dc/elements/1.1/"
   xmlns:cc="http://creativecommons.org/ns#"
   xmlns:rdf="http://www.w3.org/1999/02/22-rdf-syntax-ns#"
   xmlns:svg="http://www.w3.org/2000/svg"
   xmlns="http://www.w3.org/2000/svg"
   xmlns:sodipodi="http://sodipodi.sourceforge.net/DTD/sodipodi-0.dtd"
   xmlns:inkscape="http://www.inkscape.org/namespaces/inkscape"
   version="1.1"
   width="448.38623"
   height="516.12299"
   viewBox="0 -100 500 600"
   id="svg7"
   sodipodi:docname="new-vaping-path.svg"
   inkscape:version="1.0.2-2 (e86c870879, 2021-01-15)">
  <metadata
     id="metadata13">
    <rdf:RDF>
      <cc:Work
         rdf:about="">
        <dc:format>image/svg+xml</dc:format>
        <dc:type
           rdf:resource="http://purl.org/dc/dcmitype/StillImage" />
        <dc:title></dc:title>
      </cc:Work>
    </rdf:RDF>
  </metadata>
  <metadata
     id="metadata17">
    <rdf:RDF>
      <cc:Work
         rdf:about="">
        <dc:format>image/svg+xml</dc:format>
        <dc:type
           rdf:resource="http://purl.org/dc/dcmitype/StillImage" />
        <dc:title></dc:title>
      </cc:Work>
    </rdf:RDF>
  </metadata>
  <defs
     id="defs11" />
  <sodipodi:namedview
     pagecolor="#ffffff"
     bordercolor="#666666"
     borderopacity="1"
     objecttolerance="10"
     gridtolerance="10"
     guidetolerance="10"
     inkscape:pageopacity="0"
     inkscape:pageshadow="2"
     inkscape:window-width="2400"
     inkscape:window-height="1271"
     id="namedview9"
     showgrid="true"
     inkscape:snap-page="true"
     inkscape:snap-grids="false"
     inkscape:snap-to-guides="false"
     inkscape:zoom="1.0375434"
     inkscape:cx="381.9316"
     inkscape:cy="318.0004"
     inkscape:window-x="-9"
     inkscape:window-y="-9"
     inkscape:window-maximized="1"
     inkscape:current-layer="svg7">
    <inkscape:grid
       type="xygrid"
       id="grid15"
       originx="644.09501"
       originy="215.54239" />
  </sodipodi:namedview>
  <g
     id="layer1"
     transform="matrix(1.9523187,0,0,1.7285869,-240.97858,-633.2283)">
    <g
       style="fill:#e4714b;fill-opacity:1;stroke-linejoin:miter"
       id="g4"
       transform="matrix(0.44327437,0,0,0.4883287,68.717754,340.21436)">
      <path
         d="m 227.97179,369.53345 0.0114,5e-5 h -0.0113 z m 52.47993,109.74051 q -1.06857,0 -1.83884,0.71649 -0.76586,0.75107 -0.80688,1.82519 -0.006,1.07538 0.72025,1.85529 0.74893,0.7605 1.81668,0.80279 0.009,8e-5 0.0189,8e-5 1.06302,0 1.83221,-0.71178 0.76798,-0.74939 0.81159,-1.82348 0.008,-1.07538 -0.71549,-1.85681 -0.76138,-0.77106 -1.82559,-0.80768 l -0.003,-5e-5 q -0.005,-4e-5 -0.0101,-4e-5 z m 39.83938,13.76594 c 0.0925,0 0.1723,0.0189 0.21815,0.0543 0.13575,0.0768 -0.0379,0.1936 -0.38221,0.2066 -0.0638,0.008 -0.11929,0.0121 -0.16586,0.0121 -0.20178,0 -0.23511,-0.0724 -0.0437,-0.17377 0.11508,-0.0679 0.25479,-0.0992 0.37365,-0.0992 z m 15.349,4.89763 c 0.19196,0.002 0.0247,0.27731 -0.52126,0.88269 l -0.63572,0.67963 0.49601,-0.78739 c 0.29235,-0.41516 0.56182,-0.76449 0.62371,-0.77243 0.0123,-0.002 0.0236,-0.002 0.0339,-0.002 z m -7.9172,-40.38593 c -1.27762,0 -2.5407,0.30427 -3.56387,0.94584 -1.31233,0.79836 -3.07569,2.97596 -2.6106,3.1676 0.17063,0.10376 -0.78843,0.2276 -2.09176,0.36438 -3.0828,0.2406 -4.99384,1.27356 -6.49375,3.54298 -1.80026,2.62258 -1.94696,5.62944 -0.46088,8.61437 0.40616,0.82409 0.55476,1.2247 0.46106,1.2247 -0.034,0 -0.10015,-0.053 -0.19757,-0.15781 -0.28741,-0.27746 -0.75451,-0.9721 -1.01203,-1.505 -0.30193,-0.57001 -0.57464,-0.85639 -0.94973,-0.85639 -0.39981,0 -0.91595,0.32533 -1.70785,0.97923 -1.44602,1.22463 -2.05167,2.62383 -2.04367,4.63573 l 0.014,1.5708 -0.22955,-1.29138 c -0.20397,-1.37237 -1.00507,-2.02355 -2.47117,-2.02355 -0.24825,0 -0.51555,0.0187 -0.80227,0.0557 -2.1036,0.27157 -3.67538,1.98407 -3.57461,3.984 0.033,0.499 -0.20356,1.34729 -0.51496,1.85929 -0.72238,1.22555 -0.3652,2.53183 0.9072,3.37408 0.4671,0.32607 0.95494,0.486 1.43194,0.486 0.6879,0 1.35328,-0.33263 1.90134,-0.97916 0.31784,-0.38187 0.60929,-0.62921 0.7067,-0.62921 0.0194,0 0.0311,0.01 0.0338,0.0304 0.02,0.1547 -0.16064,0.46106 -0.38025,0.70957 -0.96697,1.03685 0.35849,3.50799 2.36243,4.41302 0.49676,0.21479 1.19363,0.31687 1.91275,0.31687 1.06497,0 2.17871,-0.22391 2.7637,-0.63736 0.22075,-0.15705 0.36105,-0.23801 0.42551,-0.23932 h 0.003 c 0.0583,10e-4 0.0495,0.073 -0.0224,0.21838 -0.26844,0.60076 1.61569,2.52776 3.17758,3.17536 0.79843,0.3374 2.22348,0.65667 3.1716,0.6916 1.23053,0.0298 1.4281,0.0987 0.72052,0.22148 -0.95502,0.15476 -0.98199,0.1897 -0.70354,1.12879 0.94426,2.92901 3.57396,5.51467 6.59993,6.53958 0.91422,0.31335 1.93979,0.46457 2.98097,0.46457 1.9195,0 3.89208,-0.51386 5.31814,-1.47275 0.64746,-0.43543 1.21406,-0.71985 1.41208,-0.71985 0.0498,0 0.0763,0.018 0.0749,0.0561 -0.002,0.11888 0.2358,0.1795 0.69233,0.1795 0.39067,0 0.94183,-0.0444 1.64087,-0.13463 1.8832,-0.27447 2.63672,-0.52893 3.97198,-1.39319 2.23042,-1.48315 3.94586,-4.03195 4.3729,-6.5719 l 0.34427,-1.96298 -1.76041,0.007 c -2.2674,-0.0218 -2.44604,-0.1875 -0.37329,-0.45508 2.26245,-0.2605 3.9769,-1.11081 5.2941,-2.6018 2.92401,-3.17658 2.70333,-8.05469 -0.4473,-11.26508 -0.45569,-0.45496 -0.64182,-0.70193 -0.54083,-0.70468 h 0.003 c 0.0361,9.2e-4 0.10453,0.0294 0.20605,0.0869 0.34131,0.20764 1.08676,0.86634 1.63474,1.45612 l 0.983,1.03682 0.8193,-1.20656 c 0.81537,-1.23752 1.67752,-3.33038 1.95786,-4.81339 0.0988,-0.45305 -0.0549,-2.13171 -0.29349,-3.73645 -0.4162,-2.49383 -0.62778,-3.15844 -1.54996,-4.45477 -1.47507,-2.16858 -3.47012,-3.73538 -5.88824,-4.68139 -1.15833,-0.45527 -1.72711,-0.6449 -2.61213,-0.6449 -0.63384,0 -1.4299,0.0973 -2.72094,0.26388 -2.84622,0.36731 -3.42206,0.53601 -4.72636,1.39624 l -1.44707,0.97309 -0.94815,-1.00992 c -1.21521,-1.30817 -3.20528,-2.02143 -5.16138,-2.02143 z m -51.64264,47.1596 v 0 c 0.0644,0.003 0.38824,0.21815 0.88056,0.59785 0.55835,0.43079 0.85658,0.70557 0.78424,0.70557 -0.0237,0 -0.0869,-0.0294 -0.1937,-0.0923 -0.40856,-0.23633 -1.00134,-0.69366 -1.35843,-1.04785 -0.10818,-0.1091 -0.14309,-0.16168 -0.11543,-0.16328 z m -11.49856,-6.5637 c 0.19073,5.7e-4 0.70922,0.12698 1.52063,0.4008 1.9504,0.63783 5.86059,3.53596 7.15359,5.28187 0.65494,0.93873 0.73813,1.2392 0.35708,1.73309 l -0.45715,0.5929 -1.18423,-1.93776 c -1.30005,-2.1453 -4.10599,-4.58568 -6.28418,-5.4387 -1.01974,-0.4031 -1.36087,-0.6314 -1.1084,-0.6322 z m 10.60266,6.70183 c 0.19287,0 0.66272,0.27047 1.30432,0.76545 0.76562,0.59057 1.28775,1.19024 1.19259,1.31378 -0.019,0.0247 -0.052,0.0363 -0.0968,0.0363 -0.22485,0 -0.74801,-0.29412 -1.30407,-0.72293 -0.69165,-0.53357 -1.23285,-1.10839 -1.19245,-1.3139 0.004,-0.053 0.0369,-0.0787 0.0964,-0.0787 z m -0.77939,0.95597 c 0.2287,0 0.60016,0.24087 1.32153,0.79727 1.235,0.95251 1.345,1.11639 0.98306,1.58575 -0.13276,0.172 -0.23834,0.27058 -0.38186,0.27058 -0.22733,0 -0.5499,-0.2472 -1.22644,-0.84144 -0.97446,-0.83038 -1.2002,-1.20172 -1.00206,-1.56086 0.0802,-0.16192 0.1665,-0.2513 0.30577,-0.2513 z m 18.61075,2.87924 c 0.2351,0.13492 0.51266,0.31856 0.81928,0.54053 l 0.78533,0.60589 v 0 l -1.06091,1.06082 -0.48194,-1.85882 c -0.0236,-0.092 -0.0452,-0.20868 -0.0647,-0.34842 z m -10.45882,-3.47632 c -0.029,0.37683 -0.0598,0.75775 -0.0921,1.14081 h -0.003 l -1.30168,1.68744 c -2.15298,2.79089 -3.3308,4.52206 -3.1827,4.63633 0.0121,0.009 0.0283,0.0138 0.0481,0.0138 0.18255,0 0.67477,-0.38415 1.14407,-0.94608 l 0.93906,-1.1665 -0.69004,1.20098 c -0.40222,0.67472 -0.58014,1.36478 -0.48901,1.55315 0.0361,0.0503 0.081,0.0762 0.1376,0.0762 0.24115,0 0.6933,-0.46986 1.5665,-1.5192 l 1.44025,-1.76483 v 0 l -1.21024,1.82422 c -0.78626,1.23282 -1.03113,1.6398 -0.83106,1.6398 0.087,0 0.2583,-0.077 0.50584,-0.19659 0.2742,-0.12391 0.53369,-0.19562 0.72,-0.19562 0.14212,0 0.24166,0.0418 0.27276,0.13386 0.0266,0.0679 0.0865,0.11724 0.16535,0.14696 h -0.003 c -0.0832,0.60494 -0.1676,1.17184 -0.25201,1.68754 -0.0644,0.3837 -0.12635,0.792 -0.18589,1.223 h -4e-5 l -4.5908,-3.5415 4.0773,-5.2854 1.81155,-2.34838 z M 215.1831,366.32748 q -1.74177,0 -3.40551,0.22342 -0.63828,-0.0192 -1.28554,-0.0264 -0.37448,-0.004 -0.75188,-0.004 -1.79907,0 -3.66681,0.0931 l -0.0558,0.003 q -26.16908,1.22293 -44.82422,26.40735 -17.56157,24.37108 -6.61131,44.85315 l 2.39671,-0.68077 h 0.0109 c 0.0997,0.72414 0.20586,1.4286 0.31632,2.09145 0.96388,6.47185 0.96388,6.88498 -0.27537,8.46855 -1.30815,1.65242 -1.30815,1.65242 0.55079,3.3736 1.03273,0.964 2.06546,1.72126 2.27205,1.72126 0.20651,0 0.41302,1.85901 0.41302,4.19989 0,3.30481 0.27544,4.40637 1.37708,5.16365 1.03271,0.75737 1.10156,1.17046 0.48193,1.7901 -0.48193,0.48192 -0.8262,1.377 -0.8262,2.06554 0,0.68854 -0.4131,1.2392 -0.96389,1.2392 -1.92778,0 -1.7901,2.89178 0.27535,5.99006 1.7901,2.68505 1.85901,2.96044 0.82622,3.58013 -0.96398,0.55077 -0.82622,0.82623 1.30815,1.72131 1.06698,0.42676 2.382,0.68811 3.27237,0.68811 0.25869,0 0.48153,-0.022 0.65201,-0.0686 0.30687,-0.0646 0.55313,-0.10265 0.75042,-0.10265 0.6433,0 0.76433,0.40527 0.76433,1.61737 0,1.30816 0.89505,2.61621 3.1671,4.68176 2.68506,2.40972 5.64564,6.54077 4.95711,6.95386 -0.13769,0.0689 -1.10157,0.41302 -2.27205,0.82616 -1.30815,0.41303 -2.47855,1.51466 -3.23584,3.0293 -2.54749,5.02607 -6.40311,14.8716 -6.19652,15.69788 0.13768,0.55072 -0.82613,2.20312 -2.13429,3.78656 -2.82289,3.44256 -9.29476,12.18653 -15.97321,21.41236 -2.61622,3.6489 -6.88496,9.3635 -9.36352,12.5306 -4.47516,5.7834 -11.29138,17.55655 -12.8748,22.2384 -0.6197,1.65244 -0.82621,15.0781 -0.82621,47.64396 v 45.37189 h 93.56661 c 87.50796,0 93.56671,-0.0688 93.97974,-1.17041 0.89514,-2.27198 1.92785,-20.51724 1.51473,-25.68104 -0.68843,-8.3307 -0.41308,-20.6548 0.55077,-25.12994 2.5474,-11.29132 2.20314,-13.15033 -2.75395,-14.94043 l -2.47858,-0.89503 0.41313,-4.61296 c 0.2065,-2.54744 0.89495,-6.60964 1.44573,-8.9505 0.55087,-2.40964 1.0328,-5.50794 1.0328,-6.88484 0,-1.51476 1.44593,-6.1278 3.51129,-11.016 0.42875,-1.0371 0.8234,-1.9923 1.18728,-2.8762 h -0.003 c 0.0384,-0.0347 0.0779,-0.0757 0.11828,-0.12305 0.15842,-0.18235 0.24991,-0.27785 0.28148,-0.28119 h 0.003 c 0.0317,0.004 -0.0174,0.13288 -0.1365,0.39534 -0.19886,0.4925 0.0416,0.8325 0.37727,0.8325 0.17628,0 0.3788,-0.0937 0.55778,-0.30834 0.19942,-0.2356 0.30922,-0.3653 0.34612,-0.36916 h 0.003 c 0.0388,0.005 -0.0257,0.1899 -0.16517,0.5901 -0.0358,0.097 -0.0354,0.145 -1.3e-4,0.145 0.1432,0 0.8603,-0.79026 2.0572,-2.30076 1.30685,-1.59214 4.49212,-5.51704 7.08126,-8.71994 l 4.74561,-5.7945 -6.77164,8.8801 c -6.94281,9.10285 -7.01343,9.2453 -5.66125,9.38227 0.001,3e-5 0.003,1.3e-4 0.004,1.3e-4 0.39053,0 2.43186,-2.5454 9.54059,-11.8627 l 9.05201,-11.88835 -0.88144,-0.79785 c -0.41663,-0.3864 -0.65133,-0.5611 -0.84565,-0.5611 -0.15915,0 -0.29116,0.11713 -0.47381,0.3311 l -0.48764,0.5298 0.32052,-0.6196 c 0.28009,-0.54617 0.0561,-1.01583 -0.29391,-1.01583 -0.13837,0 -0.29644,0.0734 -0.45081,0.24457 -0.15179,0.17321 -0.23889,0.26266 -0.26855,0.26266 -0.0348,0 0.009,-0.1227 0.12036,-0.37704 0.19646,-0.44926 -0.11502,-0.92389 -0.44547,-0.92389 -0.10272,0 -0.20727,0.0459 -0.29897,0.15263 -0.0825,0.1071 -0.13856,0.16066 -0.16813,0.16066 -0.0387,0 -0.0321,-0.0917 0.0199,-0.27502 0.11496,-0.38099 0.008,-0.58994 -0.19693,-0.58994 -0.15634,0 -0.36993,0.1211 -0.58657,0.37985 l -0.46845,0.50535 0.3204,-0.6197 c 0.28012,-0.5462 0.0563,-1.01583 -0.29358,-1.01583 -0.13839,0 -0.29647,0.0735 -0.45089,0.24473 -0.15178,0.1731 -0.2389,0.2624 -0.26862,0.2624 -0.0349,0 0.009,-0.1227 0.12042,-0.377 0.19638,-0.4492 -0.11496,-0.9238 -0.44531,-0.9238 -0.10277,0 -0.2074,0.0459 -0.29913,0.1528 -0.0825,0.1069 -0.13852,0.1604 -0.16809,0.1604 -0.0387,0 -0.032,-0.0916 0.0199,-0.27466 0.11783,-0.37554 -0.0135,-0.60674 -0.23197,-0.60674 -0.13207,0 -0.29604,0.0845 -0.45608,0.27275 -0.1517,0.17325 -0.23882,0.26265 -0.26852,0.26265 -0.0348,0 0.009,-0.12263 0.1204,-0.3769 0.2099,-0.50495 -0.0213,-0.84925 -0.35706,-0.84925 -0.17997,0 -0.38994,0.099 -0.57807,0.32505 l -0.46857,0.50515 0.32038,-0.6195 c 0.28009,-0.54615 0.0561,-1.01585 -0.29382,-1.01585 -0.13834,0 -0.29639,0.0734 -0.45078,0.2446 -0.13473,0.151 -0.21243,0.22816 -0.24234,0.22816 -0.0347,0 -0.005,-0.10426 0.0752,-0.31776 0.14115,-0.285 -0.0656,-0.68115 -0.49115,-1.0488 -0.31155,-0.24026 -0.52135,-0.35854 -0.70092,-0.35854 -0.16208,0 -0.29947,0.0964 -0.46483,0.2865 -0.22237,0.23984 -0.33922,0.3659 -0.36638,0.3659 -0.0301,0 0.0498,-0.15456 0.21818,-0.48016 0.28014,-0.5461 0.0561,-1.0157 -0.2939,-1.0157 -0.13833,0 -0.29635,0.0734 -0.4507,0.2444 -0.1518,0.1732 -0.2389,0.26263 -0.2686,0.26263 -0.0347,0 0.009,-0.12263 0.1204,-0.37689 0.19635,-0.44954 -0.11502,-0.92404 -0.44544,-0.92404 -0.10276,0 -0.20733,0.0459 -0.29906,0.1527 -0.0825,0.107 -0.1386,0.16044 -0.16816,0.16044 -0.0387,0 -0.032,-0.0915 0.02,-0.27474 0.1178,-0.37547 -0.0133,-0.60655 -0.23172,-0.60655 -0.13208,0 -0.29611,0.0846 -0.45624,0.27295 -0.15182,0.1732 -0.23894,0.2626 -0.26864,0.2626 -0.0348,0 0.009,-0.1227 0.12048,-0.377 0.14099,-0.28513 0.0711,-0.65415 -0.1265,-0.8066 -0.0715,-0.0552 -0.15976,-0.082 -0.25232,-0.082 -0.16306,0 -0.33944,0.0832 -0.46103,0.2408 -0.15173,0.1733 -0.23883,0.26275 -0.26849,0.26275 -0.0347,0 0.009,-0.12265 0.1203,-0.37701 0.18234,-0.41704 -0.0631,-0.86798 -0.35727,-0.92084 h -0.003 c -0.20322,-3.3001 -0.59577,-6.0413 -1.15047,-7.2827 -0.634,-1.3209 -2.241,-2.27675 -3.54552,-2.27675 -0.3955,0 -0.76318,0.0879 -1.06748,0.28005 -0.0484,0.0276 -0.094,0.0414 -0.13692,0.0414 -0.3837,0 -0.54456,-1.1028 -0.48261,-3.20853 0,-2.96051 -0.20657,-3.85553 -1.51465,-4.88819 -0.96786,-0.80102 -2.04889,-1.19758 -3.0863,-1.19758 -1.10294,0 -2.15652,0.4483 -2.97252,1.33516 -0.5382,0.59484 -0.855,0.94484 -1.07014,0.94484 -0.30793,0 -0.40802,-0.7169 -0.65116,-2.4595 -0.40204,-3.13555 -2.11844,-4.7924 -4.34064,-4.7924 -1.58374,0 -3.4244,0.84154 -5.22936,2.58928 l -1.24204,1.24192 v 0 l -1.90689,-1.4522 h -0.003 c -0.27597,-3.46797 0.10696,-14.0979 0.72439,-22.0761 h -0.003 q 1.49793,-0.1977 2.64487,-1.2663 1.40416,-1.3797 1.47266,-3.3239 0.0176,-1.97275 -1.31058,-3.39667 -0.81612,-0.83173 -1.83285,-1.19493 h -0.003 c 0.4235,-4.28786 -0.10012,-5.27468 -2.18975,-6.26155 -0.42887,-0.19605 -0.87073,-0.28962 -1.31365,-0.28962 -2.0463,0 -4.11497,1.99634 -5.02055,5.1092 -1.43427,5.12217 -3.07172,17.35803 -3.2995,25.08105 h -0.003 l -0.95634,1.09146 -0.96965,1.10388 -1.79725,-1.34692 c -1.5894,-1.2262 -5.6352,-2.9527 -6.55468,-2.9527 -0.19504,0 -0.24942,0.0777 -0.1099,0.25427 0.0493,0.0546 0.0592,0.0806 0.0346,0.0806 -0.0922,0 -0.6686,-0.36444 -1.48276,-0.9613 -1.13028,-0.83264 -2.23194,-1.95825 -2.8565,-2.8341 -0.71262,-1.03086 -0.99234,-1.33598 -1.30179,-1.33598 -0.0706,0 -0.14265,0.0158 -0.22175,0.0426 -0.13732,0.0605 -0.23284,0.0894 -0.28872,0.0894 -0.0897,0 -0.0773,-0.0743 0.0283,-0.2113 0.10843,-0.1406 0.23383,-0.21311 0.38297,-0.21311 0.40103,0 0.97375,0.52446 1.84967,1.6597 0.66275,0.82642 1.70938,1.87 2.34576,2.32146 l 1.13037,0.83278 -0.91153,-0.86108 c -0.50531,-0.46833 -1.53833,-1.5805 -2.30539,-2.52674 -0.90725,-1.14072 -1.46338,-1.65518 -2.00116,-1.65518 -0.37515,0 -0.74139,0.25036 -1.2117,0.71316 -1.0877,1.05219 -2.59352,3.51484 -2.53924,4.10846 0.0565,0.43744 0.42135,0.6797 1.69299,1.22718 2.61179,1.10832 5.25238,3.30316 6.62637,5.50549 0.818,1.34003 1.64798,2.25603 2.85813,3.18957 l 1.70423,1.31446 -0.64777,0.8399 c -0.93369,1.21033 -1.03528,1.8017 -0.39303,2.29697 0.14766,0.11389 0.2666,0.18646 0.4035,0.18646 0.344,0 0.80166,-0.45788 2.11498,-1.86807 l 1.99414,-2.12556 -1.69784,2.35407 -1.67874,2.32956 5.10276,3.93617 h -0.003 c -1.43524,11.4603 -1.34183,36.5988 0.28025,43.0873 1.0328,4.13095 1.10162,5.64566 0.41307,8.81284 -0.41307,2.13421 -0.75734,7.98646 -0.75734,13.0813 0,5.64576 -0.27526,9.15696 -0.68848,9.15696 -0.34428,0 -0.68845,1.1017 -0.68845,2.4786 0,4.26873 -2.89175,22.16973 -4.54409,28.50384 -0.68854,2.34076 -1.99668,4.81952 -3.51136,6.54071 -3.64904,4.13098 -3.85562,5.16375 -2.20321,11.36011 l 1.51468,5.43914 -1.85895,2.20325 c -1.03272,1.17041 -2.06552,3.09821 -2.27204,4.13095 -0.2481,1.28214 -0.695,1.96805 -1.14663,1.96805 -0.30023,0 -0.60257,-0.30295 -0.84998,-0.93525 -0.20651,-0.5509 -2.68505,-2.754 -5.43912,-4.8195 -3.58021,-2.6851 -5.16373,-4.33753 -5.43907,-5.71455 -0.48195,-2.47855 -1.58359,-11.56675 -2.13436,-17.76315 -1.92779,-22.03195 -6.60955,-47.91946 -10.87827,-60.2434 -1.23924,-3.71793 -7.09149,-13.21915 -10.05206,-16.4552 -3.02935,-3.2359 -6.95372,-11.29136 -6.95372,-14.2518 -0.0689,-1.1017 -0.48203,-3.236 -1.03281,-4.7506 -0.55078,-1.5147 -1.03273,-2.9606 -1.03273,-3.23604 0,-0.27526 1.65234,-2.13426 3.64895,-4.13092 2.54748,-2.54754 4.13099,-4.88831 5.16379,-7.64224 1.99662,-5.30155 4.61292,-10.3275 5.92108,-11.4291 0.4935,-0.44862 1.30832,-0.66334 2.597,-0.66334 0.68935,0 1.5141,0.0615 2.49787,0.18134 5.1607,0.59838 9.12308,0.89208 11.93103,0.89208 2.36172,0 3.90677,-0.2077 4.66174,-0.61664 3.23593,-1.72124 4.47516,-4.26874 4.33756,-9.15698 -0.0612,-4.64483 0.52871,-5.76336 4.03314,-5.76336 0.44348,0 0.9335,0.0179 1.47483,0.0489 l 2.9604,0.20649 v -4.61292 c 0,-3.85565 0.27546,-4.81945 1.5836,-6.05878 2.47864,-2.34087 1.9966,-4.26873 -2.06552,-7.09155 l -3.5802,-2.47852 3.85562,-1.65234 c 6.19653,-2.75409 6.1276,-5.3703 -0.2065,-14.94049 -4.33757,-6.54071 -4.68184,-7.77997 -3.51128,-12.04861 0.41303,-1.44583 0.61954,-3.92446 0.41303,-5.50796 -0.61963,-4.06214 -4.26868,-15.9732 -6.19645,-20.17304 l -0.97146,-2.09833 h -0.0119 q 5.10571,-1.12985 11.84646,-3.09033 29.9348,-8.7962 33.77604,-13.24866 1.55304,-1.70172 -4.90952,-2.44916 -2.45559,-0.2662 -6.21832,-0.42215 -19.4244,-0.47128 -25.4295,-0.83493 h -0.012 l 0.0742,-0.0198 q -1.14529,-0.77193 -2.27158,-1.51973 h -0.012 c -0.005,-0.0114 -0.0109,-0.0228 -0.0164,-0.0342 h -0.0232 q -34.67448,-23.00992 -51.45485,-23.00992 -0.10301,0 -0.20531,8.5e-4 l -0.055,-6e-4 q -0.16507,-0.002 -0.32934,-0.002 z"
         id="path2" />
    </g>
  </g>
  <path
     style="fill:#000000;stroke-width:0.963815"
     d="m 0.742724,476.99149 c 0,-37.53057 0.0566964,-38.70251 2.0632912,-42.64882 3.0273884,-5.95388 8.5309138,-13.86485 20.8188868,-29.92583 12.137497,-15.86431 11.562793,-14.95628 15.210577,-24.03248 1.443186,-3.59084 3.655055,-7.33986 4.915264,-8.33114 3.005938,-2.36447 2.912443,-2.95426 -1.082062,-6.82588 -1.855344,-1.79827 -3.373353,-4.05194 -3.373353,-5.00815 0,-1.25507 -0.738852,-1.73856 -2.656777,-1.73856 -2.258559,0 -2.837971,-0.58057 -3.865638,-3.87333 -1.042374,-3.33989 -0.988591,-4.20951 0.390513,-6.31429 1.204239,-1.8379 1.325862,-2.71447 0.492285,-3.54804 -0.608898,-0.6089 -1.107089,-2.47114 -1.107089,-4.1383 0,-1.80539 -0.778159,-3.73544 -1.924227,-4.77261 -1.440842,-1.30395 -1.660265,-2.05946 -0.873466,-3.0075 1.407722,-1.6962 0.1511,-9.04327 -1.546733,-9.04327 -2.246429,0 -4.632925,-9.24897 -4.048768,-15.69117 1.054306,-11.62707 11.463672,-26.99056 23.925374,-35.31216 8.374161,-5.59205 16.264743,-7.7894 27.971428,-7.7894 13.455105,0 21.813611,3.01971 41.45006,14.9748 l 8.33038,5.07171 14.80118,0.69293 c 8.14067,0.38111 15.40114,1.01641 16.13441,1.41177 1.99735,1.07692 -6.90865,4.97028 -21.88621,9.56781 -7.06336,2.16818 -13.43509,3.94214 -14.15939,3.94214 -2.40309,0 -2.31815,1.50898 0.54631,9.70525 2.19584,6.2831 2.79131,9.54573 2.62641,14.39013 -0.19767,5.80741 0.0487,6.65088 3.37457,11.55292 4.56745,6.73202 4.6105,8.94608 0.21446,11.03214 -1.85534,0.88042 -3.37335,1.92061 -3.37335,2.31155 0,0.39093 1.30115,1.4794 2.89144,2.41881 3.21339,1.89819 3.5062,3.11475 1.41508,5.87946 -0.7783,1.02899 -1.41508,3.27853 -1.41508,4.99896 0,2.82462 -0.30388,3.15738 -3.1324,3.4301 -2.69475,0.25982 -3.17151,0.706 -3.41231,3.19346 -0.47734,4.93089 -2.23361,8.18181 -4.76311,8.81667 -1.31421,0.32984 -5.77863,0.31707 -9.92095,-0.0283 -7.442751,-0.62071 -7.553089,-0.5967 -9.367924,2.03851 -1.010049,1.46663 -2.422559,4.13422 -3.1389,5.92797 -0.71634,1.79374 -2.921943,5.31018 -4.901339,7.81431 l -3.598901,4.55294 1.723913,6.4211 c 0.948151,3.53161 2.867489,8.03893 4.265197,10.01628 6.910199,9.7759 9.570724,14.31688 11.253064,19.20666 2.69264,7.82632 6.35156,27.62367 8.15882,44.14505 2.143,19.59062 2.43347,20.46995 8.23446,24.92844 2.6653,2.04847 4.93319,3.56648 5.03977,3.37335 0.10658,-0.19314 1.19506,-1.77955 2.41887,-3.52536 2.07844,-2.96501 2.14907,-3.51385 1.0718,-8.32764 -1.11429,-4.97916 -1.06296,-5.27184 1.51781,-8.65541 2.97173,-3.89613 4.54046,-9.66137 6.71008,-24.66015 1.50489,-10.40332 1.88952,-21.9942 1.75909,-53.00983 -0.0921,-21.91188 7e-4,-24.24914 1.02663,-25.84617 0.44833,-0.69789 0.52232,-1.56171 0.16443,-1.9196 -0.35789,-0.3579 -1.07344,0.10468 -1.59013,1.02793 -1.15271,2.05974 -2.77126,2.19578 -2.77126,0.23289 0,-0.80318 -0.85673,-1.44572 -1.92763,-1.44572 -1.0602,0 -1.92763,-0.39835 -1.92763,-0.88521 0,-0.48686 -1.62644,-1.86333 -3.61431,-3.05882 -1.98787,-1.19549 -3.76616,-2.2863 -3.95178,-2.42402 -0.1856,-0.13772 -0.0341,-0.74124 0.33665,-1.34113 0.4728,-0.76503 1.20972,-0.606 2.46781,0.53254 3.28287,2.97097 11.29432,6.19478 12.26772,4.93654 0.4822,-0.62329 1.38838,-5.43713 2.01374,-10.69743 1.25737,-10.57664 2.60044,-14.33317 5.31115,-14.8552 1.9613,-0.37772 3.71136,1.56717 3.04677,3.38593 -0.22798,0.62386 0.21029,1.65283 0.97393,2.2866 1.8996,1.57652 1.74567,4.47613 -0.29824,5.61816 -1.41415,0.79014 -1.73939,2.66662 -2.01291,11.61367 -0.17942,5.86919 -0.0309,10.67126 0.32988,10.67126 0.36088,0 1.75889,-0.86744 3.10671,-1.92763 3.54914,-2.79176 5.95805,-2.46722 7.15412,0.96381 1.1468,3.28971 1.16087,3.29644 3.64566,1.74466 2.44463,-1.52669 4.88426,0.43514 4.88426,3.9277 0,1.7147 0.70743,2.85525 2.16858,3.49629 1.46302,0.64186 2.26426,1.9359 2.46266,3.97729 0.30596,3.14817 3.30628,6.42674 9.98699,10.91317 l 3.53401,2.37328 -1.90055,2.66907 c -1.0453,1.468 -2.24074,2.56861 -2.65654,2.44581 -0.41579,-0.1228 -3.25863,2.70052 -6.31742,6.27405 -3.05879,3.57353 -5.89688,6.29002 -6.30685,6.03664 -1.0816,-0.66847 -4.52773,9.56653 -5.67758,16.86239 -2.27085,14.40865 -2.37234,12.94536 0.98577,14.21291 l 3.03331,1.14495 -0.73566,5.57353 c -0.40461,3.06544 -0.88951,14.36433 -1.07755,25.10864 -0.19643,11.22296 -0.7768,20.34772 -1.364,21.44489 -1.00628,1.88026 -2.25771,1.90977 -80.984814,1.90977 H 0.742724 Z"
     id="path25" />
  <path
     style="fill:#000000;stroke-width:0.964;stroke-miterlimit:4;stroke-dasharray:none"
     d="M 0.42554556,476.78893 0.742724,437.99538 4.4891002,431.33781 c 2.0605068,-3.66167 9.8270358,-14.68246 17.2589538,-24.49065 7.850485,-10.3606 14.279456,-19.85136 15.342732,-22.64967 2.810493,-7.39661 4.62643,-10.59901 7.215106,-12.72378 l 2.370933,-1.94603 -3.931702,-4.46666 c -2.162437,-2.45666 -3.931703,-4.94224 -3.931703,-5.52352 0,-0.58128 -1.326747,-1.05687 -2.948326,-1.05687 -1.660652,0 -2.69581,-0.40858 -2.37015,-0.93551 0.317997,-0.51453 -0.108024,-2.26248 -0.946714,-3.88432 -1.395291,-2.6982 -1.392278,-3.08143 0.03545,-4.50916 1.010903,-1.0109 1.325769,-2.27336 0.894183,-3.58524 -0.366385,-1.1137 -0.882413,-3.68362 -1.146727,-5.71093 -0.264312,-2.02732 -1.008279,-3.88853 -1.653258,-4.13603 -0.796952,-0.30582 -1.035384,-2.10571 -0.744155,-5.61754 0.369818,-4.45953 0.159711,-5.31141 -1.533495,-6.21759 -2.48334,-1.32904 -4.302324,-6.77238 -4.363258,-13.05712 -0.153459,-15.82763 15.63736,-35.95414 34.052753,-43.40262 6.472814,-2.61806 23.933099,-3.17808 31.404175,-1.00726 6.621435,1.92395 17.862952,7.37856 28.834272,13.99097 l 7.71052,4.64713 14.45722,0.68747 c 16.64181,0.79134 18.71765,1.36946 13.89958,3.871 -4.33168,2.249 -23.01185,8.53193 -30.04348,10.10488 -3.04806,0.68184 -5.54194,1.66798 -5.54194,2.19142 0,0.52344 1.29484,4.99394 2.87743,9.93445 2.22902,6.95853 2.74222,9.96914 2.27744,13.36008 -0.53332,3.89099 -0.21137,5.00694 2.89763,10.04391 4.8201,7.80918 4.86961,9.59613 0.33748,12.17852 l -3.65773,2.08414 3.43,2.61618 c 3.23221,2.46533 3.34586,2.7363 1.97105,4.69913 -0.80243,1.14562 -1.45896,3.72131 -1.45896,5.72376 0,3.49651 -0.1296,3.6408 -3.27023,3.6408 -3.60891,0 -4.44029,1.15978 -4.44029,6.19425 0,5.50631 -2.45106,6.71165 -12.34476,6.07066 -4.67683,-0.30299 -8.961173,-0.25896 -9.520754,0.0978 -0.559582,0.3568 -2.419398,3.4679 -4.132926,6.91354 -1.713528,3.44564 -4.469201,7.68712 -6.123719,9.42552 l -3.008215,3.16071 1.685597,6.47744 c 1.211444,4.65536 3.316404,8.84215 7.483077,14.88393 3.188619,4.62358 6.43249,9.9263 7.20861,11.78382 3.29732,7.8916 7.64727,31.66944 10.14761,55.46917 l 1.16444,11.08387 4.92529,4.5722 c 4.91093,4.55886 7.31563,5.66352 7.35626,3.37928 0.0118,-0.66263 0.82252,-2.24674 1.80163,-3.52027 1.5824,-2.05821 1.64939,-2.81142 0.60285,-6.77867 -1.25084,-4.7417 -0.72923,-7.50882 1.81316,-9.61882 2.20482,-1.82984 4.0455,-9.04935 6.28695,-24.65869 1.70106,-11.84607 1.8955,-17.34792 1.59265,-45.06573 -0.19541,-17.88483 0.0279,-31.8027 0.51489,-32.10374 0.47291,-0.29227 0.85985,-1.22361 0.85985,-2.06963 0,-1.37342 -0.19376,-1.36288 -1.80855,0.0985 -1.60056,1.44849 -1.87418,1.46567 -2.37929,0.14938 -0.3139,-0.81803 -1.16771,-1.48733 -1.89734,-1.48733 -0.72962,0 -2.07574,-0.8278 -2.99137,-1.83956 -0.91562,-1.01176 -2.94159,-2.36844 -4.50215,-3.01484 -2.24197,-0.92866 -2.60848,-1.45108 -1.7466,-2.48959 0.90317,-1.08825 1.538,-0.938 3.69089,0.87355 2.71358,2.28333 10.30549,5.22919 11.19191,4.34276 0.28146,-0.28147 0.95694,-4.58033 1.50107,-9.55305 1.12886,-10.31652 3.26715,-15.788 6.17004,-15.788 1.38639,0 2.01325,0.7442 2.2326,2.65049 0.16773,1.45777 0.66348,2.65049 1.10165,2.65049 1.81206,0 1.9259,3.29562 0.17997,5.20986 -1.41209,1.54823 -1.97079,4.04055 -2.39704,10.69309 -0.30569,4.77088 -0.23314,9.46062 0.16121,10.42165 0.68114,1.65991 0.84345,1.64786 3.24469,-0.24095 1.39021,-1.09355 3.13152,-1.98827 3.86956,-1.98827 1.86732,0 3.65505,1.97993 3.65505,4.04802 0,2.04255 0.37301,2.12016 2.82626,0.58808 2.38211,-1.48765 4.88426,0.4069 4.88426,3.6982 0,1.57872 0.76146,2.60488 2.39334,3.22532 1.80579,0.68656 2.54326,1.84742 3.00397,4.72852 0.52846,3.30482 1.43834,4.42628 6.76289,8.33541 3.38376,2.48427 6.13786,4.79129 6.12022,5.12673 -0.0565,1.0742 -3.61759,4.94706 -4.54886,4.94706 -0.49422,0 -3.19871,2.71073 -6.00999,6.02384 -2.81127,3.31312 -5.50125,5.90894 -5.97774,5.76851 -1.3752,-0.40533 -3.74798,6.24354 -5.71368,16.01052 -2.5104,12.47345 -2.41242,13.77499 1.19146,15.82632 2.66371,1.5162 2.92257,2.04541 2.35722,4.81908 -0.3493,1.71371 -0.97026,13.23454 -1.37992,25.60184 -0.591,17.84173 -1.02936,22.66606 -2.12237,23.35776 -0.79227,0.50137 -35.29501,0.87802 -81.209447,0.88651 l -79.83192488,0.0148 z"
     id="path850" />
</svg>
